<?xml version="1.0" encoding="utf-8"?>
<!-- Generator: Adobe Illustrator 19.0.0, SVG Export Plug-In . SVG Version: 6.00 Build 0)  -->
<svg version="1.1" id="q_x5F_logo" xmlns="http://www.w3.org/2000/svg" xmlns:xlink="http://www.w3.org/1999/xlink" x="0px" y="0px"
	 width="730.5px" height="669.5px" viewBox="0 0 730.5 669.5" enable-background="new 0 0 730.5 669.5" xml:space="preserve">
<g id="XMLID_5_">
	<path id="XMLID_8_" d="M314.4,557.8c-52.1,0-95.1-18.9-129-56.8c-33.9-37.8-50.8-93.4-50.8-166.7c0-74.5,16.5-130.2,49.5-167.2
		c33-36.9,76.4-55.4,130.3-55.4s97.1,18.3,129.6,54.8c32.5,36.5,48.8,91.9,48.8,166.1c0,39.4-4.6,73.5-13.8,102.6L592,510.6
		c24-48.7,36-107,36-175c0-105.4-28.6-187.7-85.9-246.9C484.8,29.6,408.5,0,313.1,0c-52.7,0-99.2,8.5-139.6,25.6
		c-30.3,12.7-58.2,32.1-83.7,58.3c-25.5,26.2-45.6,55.8-60.3,88.8C9.9,217.4,0,272.8,0,338.7c0,103.1,28.4,183.9,85.2,242.7
		c56.8,58.7,133.4,88.1,229.7,88.1c85.7,0,155.8-24,210.4-71.9L417,525.3C388.2,546.9,354,557.8,314.4,557.8z"/>
</g>
<rect id="XMLID_43_" x="351.2" y="521.5" transform="matrix(0.8313 0.5559 -0.5559 0.8313 386.1724 -177.3567)" width="268" height="51.9"/>
<rect id="XMLID_50_" x="305.1" y="453.4" transform="matrix(0.8313 0.5559 -0.5559 0.8313 355.7931 -213.4719)" width="448.9" height="51.9"/>
</svg>
